<svg width="3264" height="1528" viewBox="0 0 3264 1528" fill="none" xmlns="http://www.w3.org/2000/svg">
<g clip-path="url(#clip0)">
<rect width="3264" height="1528" fill="white"/>
<path fill-rule="evenodd" clip-rule="evenodd" d="M1006.37 876.072C1046.9 823.824 1066 758.099 1059.78 692.267C1053.57 626.436 1022.51 565.445 972.925 521.701C923.339 477.957 858.95 454.746 792.858 456.791C726.766 458.837 663.935 485.984 617.149 532.71C570.321 579.469 543.085 642.323 540.991 708.465C538.897 774.608 562.103 839.059 605.879 888.686C649.655 938.314 710.706 969.381 776.593 975.558C842.479 981.735 908.242 962.556 960.479 921.93L961.876 923.392L1099.74 1061.29C1102.76 1064.31 1106.35 1066.7 1110.29 1068.34C1114.24 1069.97 1118.46 1070.81 1122.73 1070.81C1127.01 1070.81 1131.23 1069.97 1135.18 1068.34C1139.12 1066.7 1142.71 1064.31 1145.73 1061.29C1148.75 1058.27 1151.14 1054.69 1152.78 1050.74C1154.41 1046.79 1155.25 1042.57 1155.25 1038.3C1155.25 1034.03 1154.41 1029.8 1152.78 1025.85C1151.14 1021.91 1148.75 1018.32 1145.73 1015.3L1007.83 877.437C1007.36 876.969 1006.87 876.514 1006.37 876.072ZM938.899 578.697C957.248 596.75 971.842 618.258 981.838 641.979C991.834 665.701 997.034 691.166 997.139 716.908C997.244 742.649 992.251 768.156 982.448 791.958C972.646 815.76 958.228 837.385 940.026 855.587C921.824 873.789 900.199 888.207 876.397 898.01C852.595 907.812 827.088 912.805 801.346 912.7C775.605 912.595 750.139 907.395 726.418 897.399C702.697 887.403 681.189 872.809 663.136 854.46C627.059 817.79 606.933 768.349 607.142 716.908C607.351 665.466 627.879 616.191 664.255 579.816C700.63 543.441 749.905 522.913 801.346 522.703C852.788 522.494 902.229 542.62 938.899 578.697Z" fill="#1787E8"/>
<path d="M923.088 768.207V733.903C923.088 720.201 917.645 707.06 907.956 697.371C898.267 687.682 885.126 682.239 871.424 682.239H841.902C836.03 682.239 830.398 679.906 826.246 675.754C822.093 671.602 819.761 665.97 819.761 660.097V625.793C825.919 622.98 831.141 618.458 834.804 612.764C838.468 607.07 840.419 600.443 840.426 593.673C840.426 584.277 836.694 575.266 830.05 568.622C823.406 561.979 814.395 558.246 805 558.246C795.604 558.246 786.593 561.979 779.949 568.622C773.305 575.266 769.573 584.277 769.573 593.673C769.573 607.947 778.075 620.184 790.239 625.793V660.097C790.239 665.97 787.906 671.602 783.753 675.754C779.601 679.906 773.969 682.239 768.097 682.239H738.575C724.873 682.239 711.732 687.682 702.043 697.371C692.354 707.06 686.911 720.201 686.911 733.903V768.207C679.557 771.561 673.573 777.333 669.956 784.562C666.34 791.791 665.308 800.041 667.034 807.937C668.76 815.834 673.138 822.902 679.441 827.963C685.743 833.024 693.589 835.774 701.672 835.754C709.747 835.758 717.58 833 723.871 827.938C730.162 822.876 734.533 815.814 736.257 807.926C737.981 800.037 736.954 791.796 733.348 784.571C729.742 777.346 723.774 771.572 716.433 768.207V733.903C716.433 728.03 718.766 722.399 722.918 718.246C727.071 714.094 732.702 711.761 738.575 711.761H768.097C776.053 711.761 783.507 709.813 790.239 706.595V768.207C782.884 771.561 776.9 777.333 773.284 784.562C769.667 791.791 768.636 800.041 770.362 807.937C772.087 815.834 776.466 822.902 782.768 827.963C789.071 833.024 796.916 835.774 805 835.754C813.074 835.758 820.908 833 827.199 827.938C833.49 822.876 837.86 815.814 839.584 807.926C841.308 800.037 840.282 791.796 836.676 784.571C833.07 777.346 827.101 771.572 819.761 768.207V706.595C826.492 709.813 833.946 711.761 841.902 711.761H871.424C877.297 711.761 882.928 714.094 887.081 718.246C891.233 722.399 893.566 728.03 893.566 733.903V768.207C887.407 771.02 882.186 775.543 878.522 781.237C874.859 786.931 872.908 793.557 872.9 800.328C872.9 809.723 876.633 818.734 883.277 825.378C889.92 832.022 898.931 835.754 908.327 835.754C917.723 835.754 926.734 832.022 933.377 825.378C940.021 818.734 943.754 809.723 943.754 800.328C943.754 786.054 935.266 773.817 923.088 768.207ZM805 573.229C810.418 573.229 815.614 575.381 819.445 579.212C823.277 583.043 825.429 588.24 825.429 593.658C825.429 599.076 823.277 604.272 819.445 608.104C815.614 611.935 810.418 614.087 805 614.087C799.581 614.087 794.385 611.935 790.554 608.104C786.723 604.272 784.57 599.076 784.57 593.658C784.57 588.24 786.723 583.043 790.554 579.212C794.385 575.381 799.581 573.229 805 573.229V573.229ZM701.672 820.772C698.987 820.772 696.329 820.243 693.849 819.215C691.368 818.188 689.114 816.682 687.216 814.784C685.318 812.885 683.812 810.632 682.784 808.151C681.757 805.671 681.228 803.012 681.228 800.328C681.228 797.643 681.757 794.984 682.784 792.504C683.812 790.024 685.318 787.77 687.216 785.871C689.114 783.973 691.368 782.467 693.849 781.44C696.329 780.412 698.987 779.883 701.672 779.883C707.094 779.883 712.294 782.037 716.128 785.871C719.962 789.705 722.116 794.905 722.116 800.328C722.116 805.75 719.962 810.95 716.128 814.784C712.294 818.618 707.094 820.772 701.672 820.772V820.772ZM805 820.772C802.315 820.772 799.656 820.243 797.176 819.215C794.696 818.188 792.442 816.682 790.543 814.784C788.645 812.885 787.139 810.632 786.112 808.151C785.084 805.671 784.556 803.012 784.556 800.328C784.556 797.643 785.084 794.984 786.112 792.504C787.139 790.024 788.645 787.77 790.543 785.871C792.442 783.973 794.696 782.467 797.176 781.44C799.656 780.412 802.315 779.883 805 779.883C810.422 779.883 815.622 782.037 819.456 785.871C823.29 789.705 825.444 794.905 825.444 800.328C825.444 805.75 823.29 810.95 819.456 814.784C815.622 818.618 810.422 820.772 805 820.772V820.772ZM908.327 820.772C905.642 820.772 902.984 820.243 900.503 819.215C898.023 818.188 895.769 816.682 893.871 814.784C891.972 812.885 890.467 810.632 889.439 808.151C888.412 805.671 887.883 803.012 887.883 800.328C887.883 797.643 888.412 794.984 889.439 792.504C890.467 790.024 891.972 787.77 893.871 785.871C895.769 783.973 898.023 782.467 900.503 781.44C902.984 780.412 905.642 779.883 908.327 779.883C913.749 779.883 918.949 782.037 922.783 785.871C926.617 789.705 928.771 794.905 928.771 800.328C928.771 805.75 926.617 810.95 922.783 814.784C918.949 818.618 913.749 820.772 908.327 820.772V820.772Z" fill="#1787E8"/>
<path d="M1669.91 932.946C1669.91 936.488 1662.37 942.829 1647.29 951.97C1632.2 960.996 1621.06 967.852 1613.86 972.536C1606.67 977.106 1603.07 979.906 1603.07 980.934C1604.44 984.019 1605.87 989.275 1607.35 996.702C1608.95 1004.01 1609.58 1011.96 1609.24 1020.52C1608.89 1029.09 1606.15 1036.75 1601.01 1043.49C1595.87 1050.12 1587.3 1054.12 1575.3 1055.49C1563.31 1056.52 1552.57 1054.74 1543.08 1050.17C1533.71 1045.49 1527.83 1038.81 1525.43 1030.12C1523.03 1021.32 1525.94 1011.1 1534.17 999.444C1539.65 992.931 1546.17 987.275 1553.71 982.477C1556.45 980.763 1559.19 978.877 1561.93 976.821C1552.68 966.88 1543.94 956.711 1535.71 946.314C1527.49 935.802 1522.17 926.433 1519.77 918.207C1517.37 908.609 1519.03 899.64 1524.74 891.299C1530.34 882.844 1540.17 877.931 1554.22 876.56C1561.08 875.874 1567.48 876.217 1573.42 877.588C1579.47 878.959 1585.07 881.873 1590.21 886.329C1591.24 887.357 1591.98 888.557 1592.44 889.928C1593.01 891.299 1592.78 893.013 1591.76 895.069C1590.04 898.154 1587.47 899.697 1584.04 899.697C1581.64 899.697 1579.24 899.354 1576.85 898.668C1574.45 897.64 1572.22 896.612 1570.16 895.583C1568.79 894.898 1567.42 894.212 1566.05 893.527C1561.59 891.813 1558.16 892.099 1555.76 894.384C1553.37 896.555 1552.17 899.868 1552.17 904.324C1552.51 912.208 1555.76 920.72 1561.93 929.861C1568.1 938.887 1574.27 947.171 1580.44 954.712C1582.84 957.454 1584.9 960.025 1586.61 962.424C1588.33 964.138 1592.84 963.91 1600.15 961.739C1607.58 959.454 1621.06 953.169 1640.6 942.886C1660.14 932.603 1669.91 929.29 1669.91 932.946ZM1565.53 1038.01C1569.99 1037.66 1572.9 1035.21 1574.27 1030.64C1575.65 1025.95 1576.16 1020.81 1575.82 1015.21C1575.47 1009.5 1575.13 1005.27 1574.79 1002.53C1574.1 1000.81 1572.96 999.729 1571.36 999.272C1569.88 998.701 1568.45 998.758 1567.08 999.444C1561.93 1003.56 1558.16 1008.7 1555.76 1014.87C1553.37 1021.04 1553.54 1026.52 1556.28 1031.32C1557.31 1033.04 1558.56 1034.52 1560.05 1035.78C1561.65 1036.92 1563.48 1037.66 1565.53 1038.01Z" fill="#1787E8"/>
<path d="M1879.34 947.514C1882.77 945.457 1886.08 943.915 1889.28 942.886C1892.6 941.858 1894.77 941.972 1895.8 943.229C1896.82 944.372 1895.45 947.171 1891.68 951.627C1880.03 964.995 1866.03 977.278 1849.69 988.475C1833.47 999.558 1816.79 1008.87 1799.65 1016.41C1786.28 1022.58 1772.11 1027.49 1757.14 1031.15C1742.29 1034.69 1727.55 1035.44 1712.93 1033.38C1698.42 1031.32 1685.16 1024.81 1673.16 1013.84C1655 997.044 1647.46 976.478 1650.54 952.141C1653.28 932.946 1660.82 916.607 1673.16 903.125C1685.5 889.528 1701.1 880.33 1719.95 875.531C1735.72 872.104 1751.49 871.761 1767.26 874.503C1774.45 875.531 1780.97 877.931 1786.79 881.701C1792.28 885.814 1795.25 890.728 1795.71 896.44C1796.28 902.039 1794.16 907.409 1789.36 912.551C1779.42 921.463 1767.94 926.776 1754.92 928.49C1740.18 930.889 1725.44 932.432 1710.7 933.117C1703.5 933.117 1698.42 934.603 1695.44 937.573C1692.59 940.43 1690.99 945.457 1690.65 952.655C1688.25 972.193 1694.42 988.132 1709.16 1000.47C1718.41 1007.67 1729.61 1010.76 1742.75 1009.73C1756 1008.7 1770 1005.21 1784.74 999.272C1799.48 993.217 1813.93 986.19 1828.1 978.192C1842.38 970.08 1855.18 962.424 1866.49 955.226C1871.29 952.141 1875.57 949.57 1879.34 947.514ZM1716.87 905.867C1716.87 906.209 1716.7 906.381 1716.35 906.381C1715.67 907.066 1714.81 907.866 1713.78 908.78C1712.75 909.58 1711.78 910.437 1710.87 911.351C1710.07 912.151 1709.67 912.722 1709.67 913.065C1710.01 914.093 1712.81 914.379 1718.07 913.922C1723.44 913.351 1729.27 912.379 1735.55 911.008C1741.95 909.637 1747.26 907.866 1751.49 905.695C1755.83 903.41 1757.14 900.725 1755.43 897.64C1754.74 896.612 1753.77 895.755 1752.52 895.069C1751.37 894.384 1750.12 893.87 1748.75 893.527C1742.58 893.527 1736.92 894.727 1731.78 897.126C1726.64 899.525 1721.67 902.439 1716.87 905.867Z" fill="#1787E8"/>
<path d="M2144.82 940.315C2140.59 953.341 2132.14 968.366 2119.46 985.39C2106.77 1002.3 2090.89 1013.15 2071.81 1017.95C2052.84 1022.75 2036.39 1022.07 2022.45 1015.9C2008.63 1009.73 2001.03 993.274 1999.66 966.538C1983.89 997.044 1968.86 1016.58 1954.58 1025.15C1940.41 1033.72 1925.62 1036.98 1910.19 1034.92C1892.71 1032.18 1880.89 1025.44 1874.72 1014.7C1868.55 1003.84 1866.49 991.389 1868.55 977.335C1870.6 963.281 1874.89 949.742 1881.4 936.716C1886.54 927.119 1893.63 918.207 1902.65 909.98C1911.79 901.753 1921.33 895.241 1931.27 890.442C1943.61 884.272 1956.01 881.358 1968.46 881.701C1981.03 882.044 1994.34 886.157 2008.4 894.041C2008.74 894.384 2008.91 894.041 2008.91 893.013C2008.91 891.642 2009.25 889.928 2009.94 887.871C2010.63 885.814 2011.82 884.101 2013.54 882.729C2018.34 879.302 2023.88 877.588 2030.16 877.588C2036.56 877.588 2041.47 880.844 2044.9 887.357C2045.59 895.583 2044.73 906.038 2042.33 918.721C2037.19 946.828 2037.19 967.052 2042.33 979.392C2047.47 991.731 2056.56 997.501 2069.58 996.702C2082.61 995.788 2099.46 982.934 2120.14 958.14C2140.94 933.231 2149.16 927.29 2144.82 940.315ZM1914.82 1006.13C1922.02 1011.27 1930.24 1010.58 1939.5 1004.07C1948.75 997.559 1957.67 988.304 1966.24 976.307C1974.81 964.31 1982 952.312 1987.83 940.315C1993.66 928.318 1996.91 919.406 1997.6 913.579C1980.12 904.324 1965.09 902.782 1952.52 908.952C1940.07 915.122 1930.13 925.176 1922.7 939.116C1915.39 952.941 1911.05 966.48 1909.68 979.734C1908.31 992.874 1910.02 1001.67 1914.82 1006.13Z" fill="#1787E8"/>
<path d="M2277.3 948.542C2280.39 942.372 2282.44 939.573 2283.47 940.144C2284.5 940.601 2284.73 943.058 2284.16 947.514C2283.7 951.97 2282.79 956.94 2281.42 962.424C2279.36 970.994 2275.82 980.934 2270.79 992.246C2265.88 1003.56 2260.34 1013.84 2254.17 1023.1C2245.25 1035.78 2234.11 1045.38 2220.75 1051.89C2207.38 1058.4 2195.27 1060.06 2184.41 1056.86C2173.67 1053.54 2167.44 1043.32 2165.73 1026.18C2165.39 1011.78 2166.59 996.016 2169.33 978.877C2170.36 971.679 2171.39 964.652 2172.41 957.797C2172.41 955.397 2171.79 953.512 2170.53 952.141C2169.39 950.77 2167.79 950.256 2165.73 950.599C2164.36 950.599 2162.82 950.599 2161.1 950.599C2152.53 951.97 2143.79 951.798 2134.88 950.084C2124.25 947 2118.08 941.801 2116.37 934.488C2114.66 927.062 2114.83 917.35 2116.88 905.353C2117.91 896.783 2121.11 890.385 2126.48 886.157C2131.74 881.815 2137.97 879.987 2145.16 880.673C2155.1 881.701 2159.9 885.586 2159.56 892.327C2159.22 898.954 2157.33 906.038 2153.9 913.579C2150.82 920.092 2149.16 925.519 2148.93 929.861C2148.82 934.088 2152.53 935.517 2160.07 934.146C2161.79 933.803 2163.67 933.289 2165.73 932.603C2168.47 931.575 2171.61 930.661 2175.16 929.861C2178.81 928.947 2183.55 928.661 2189.38 929.004C2196.24 929.347 2200.75 932.546 2202.92 938.602C2205.21 944.543 2206.18 952.084 2205.83 961.225C2205.49 970.251 2204.63 979.392 2203.26 988.646C2201.55 1000.3 2200.69 1010.36 2200.69 1018.81C2200.69 1027.15 2203.09 1032.01 2207.89 1033.38C2214.4 1035.09 2224 1029.27 2236.68 1015.9C2249.37 1002.53 2262.91 980.077 2277.3 948.542Z" fill="#1787E8"/>
<path d="M2488.11 946.485C2494.62 942.372 2498.91 941.172 2500.96 942.886C2503.02 944.6 2501.65 948.713 2496.85 955.226C2482.8 972.022 2465.37 987.732 2444.58 1002.36C2423.9 1016.87 2403.27 1027.38 2382.71 1033.89C2369.34 1038.69 2355.11 1041.09 2340.03 1041.09C2329.4 1041.43 2318.78 1039.89 2308.15 1036.46C2284.84 1028.92 2271.65 1012.98 2268.56 988.646C2266.85 975.278 2267.71 961.91 2271.13 948.542C2275.25 934.831 2281.82 922.834 2290.84 912.551C2299.98 902.268 2311.24 894.384 2324.61 888.899C2337.29 884.101 2350.37 882.215 2363.85 883.244C2377.45 884.272 2388.53 888.557 2397.1 896.098C2398.47 897.469 2399.16 899.183 2399.16 901.239C2399.16 903.296 2398.82 905.353 2398.13 907.409C2396.07 913.579 2393.16 916.493 2389.39 916.15C2385.62 915.807 2381.16 914.265 2376.02 911.522C2372.25 909.466 2368.14 907.581 2363.68 905.867C2359.23 904.153 2354.6 903.81 2349.8 904.838C2336.43 906.895 2325.29 914.093 2316.38 926.433C2309.18 936.716 2304.27 948.199 2301.64 960.882C2299.13 973.564 2300.1 984.876 2304.55 994.816C2310.04 1005.1 2318.95 1010.93 2331.29 1012.3C2343.63 1013.67 2357.68 1012.24 2373.45 1008.01C2389.22 1003.67 2404.99 997.73 2420.75 990.189C2436.52 982.648 2450.46 974.936 2462.57 967.052C2474.8 959.168 2483.31 952.312 2488.11 946.485Z" fill="#1787E8"/>
<path d="M2715.02 947C2728.28 932.26 2735.25 926.604 2735.93 930.032C2736.62 933.46 2733.76 941.458 2727.36 954.026C2721.08 966.48 2711.25 977.164 2697.89 986.076C2687.95 992.246 2679.43 996.359 2672.35 998.416C2665.38 1000.47 2658.98 1001.67 2653.15 1002.01C2641.84 1002.7 2633.16 999.444 2627.1 992.246C2621.16 985.047 2616.99 975.792 2614.59 964.481C2612.19 953.169 2610.48 941.515 2609.45 929.518C2608.42 921.977 2607.39 915.122 2606.37 908.952C2604.99 899.354 2602.25 894.041 2598.14 893.013C2594.03 891.984 2587.68 898.154 2579.11 911.522C2570.2 925.919 2562.38 941.801 2555.63 959.168C2549.01 976.421 2543.12 993.274 2537.98 1009.73C2537.64 1010.41 2537.3 1011.27 2536.95 1012.3C2535.93 1014.7 2535.07 1017.1 2534.38 1019.5C2532.33 1026.35 2529.93 1033.04 2527.18 1039.55C2524.79 1045.03 2520.73 1048.63 2515.02 1050.35C2509.42 1052.06 2503.53 1051.72 2497.36 1049.32C2493.25 1047.6 2490.51 1044.69 2489.14 1040.58C2487.08 1034.41 2486.39 1028.07 2487.08 1021.55C2487.08 1020.87 2487.08 1020.35 2487.08 1020.01C2488.45 992.931 2488.62 947.856 2487.59 884.786C2486.91 834.398 2486.57 780.24 2486.57 722.312C2486.57 664.383 2487.99 609.71 2490.85 558.294C2493.82 506.878 2498.91 465.746 2506.1 434.896C2509.19 423.584 2514.33 413.473 2521.53 404.561C2528.73 395.648 2536.67 390.792 2545.35 389.993C2554.15 389.079 2562.32 394.963 2569.86 407.646C2575 418.614 2578.26 430.269 2579.63 442.608C2583.06 478.942 2579.97 534.929 2570.37 610.567C2560.78 686.092 2550.72 752.247 2540.21 809.033C2529.81 865.705 2524.61 913.065 2524.61 951.113C2528.04 945.286 2531.47 939.116 2534.9 932.603C2539.7 923.005 2545.07 913.408 2551.01 903.81C2557.06 894.212 2564.2 886.1 2572.43 879.473C2580.66 872.732 2590.6 868.504 2602.25 866.791C2610.14 865.419 2618.19 865.934 2626.42 868.333C2634.64 870.732 2640.13 876.388 2642.87 885.3C2646.3 901.068 2647.5 917.864 2646.47 935.688C2646.47 954.541 2649.73 966.48 2656.24 971.508C2662.75 976.421 2670.86 977.278 2680.58 974.079C2690.4 970.765 2701.88 961.739 2715.02 947ZM2540.55 463.689C2538.84 483.227 2536.84 515.791 2534.55 561.379C2532.38 606.968 2530.5 652.671 2528.9 698.489C2527.41 744.192 2526.67 782.297 2526.67 812.804C2530.44 785.382 2534.95 749.676 2540.21 705.687C2545.58 661.583 2550.32 616.223 2554.44 569.606C2558.55 522.989 2560.61 488.026 2560.61 464.717C2560.26 452.377 2559.41 443.237 2558.03 437.295C2556.66 431.24 2554.32 429.069 2551.01 430.783C2547.81 432.497 2545.35 436.896 2543.64 443.98C2541.92 450.949 2540.9 457.519 2540.55 463.689Z" fill="#1787E8"/>
<path d="M1400.58 776.51C1381.86 776.51 1367.71 771.245 1358.11 760.715C1348.52 749.951 1343.72 734.624 1343.72 714.734V700.694H1380.23V717.542C1380.23 733.454 1386.9 741.41 1400.23 741.41C1406.79 741.41 1411.7 739.538 1414.98 735.794C1418.49 731.816 1420.24 725.498 1420.24 716.84C1420.24 706.544 1417.9 697.535 1413.22 689.813C1408.54 681.857 1399.88 672.38 1387.25 661.382C1371.33 647.342 1360.22 634.706 1353.9 623.474C1347.58 612.008 1344.42 599.138 1344.42 584.864C1344.42 565.442 1349.34 550.466 1359.17 539.936C1368.99 529.172 1383.27 523.79 1401.99 523.79C1420.47 523.79 1434.4 529.172 1443.76 539.936C1453.35 550.466 1458.15 565.676 1458.15 585.566V595.745H1421.64V583.109C1421.64 574.685 1420.01 568.601 1416.73 564.857C1413.45 560.879 1408.66 558.89 1402.34 558.89C1389.47 558.89 1383.03 566.729 1383.03 582.407C1383.03 591.299 1385.37 599.606 1390.05 607.328C1394.97 615.05 1403.74 624.41 1416.38 635.408C1432.53 649.448 1443.64 662.201 1449.72 673.667C1455.81 685.133 1458.85 698.588 1458.85 714.032C1458.85 734.156 1453.82 749.6 1443.76 760.364C1433.93 771.128 1419.54 776.51 1400.58 776.51Z" fill="#1787E8" fill-opacity="0.6"/>
<path d="M1480.99 527.3H1586.29V562.4H1519.6V627.335H1572.6V662.435H1519.6V737.9H1586.29V773H1480.99V527.3Z" fill="#1787E8" fill-opacity="0.6"/>
<path d="M1608.5 527.3H1663.61L1688.18 703.151H1688.88L1713.45 527.3H1768.56V773H1732.05V586.97H1731.35L1703.27 773H1670.98L1642.9 586.97H1642.2V773H1608.5V527.3Z" fill="#1787E8" fill-opacity="0.6"/>
<path d="M1827.2 527.3H1879.5L1919.52 773H1880.91L1873.89 724.211V724.913H1830.01L1822.99 773H1787.19L1827.2 527.3ZM1869.32 691.568L1852.12 570.122H1851.42L1834.57 691.568H1869.32Z" fill="#1787E8" fill-opacity="0.6"/>
<path d="M1938.25 527.3H1986.69L2024.24 674.369H2024.94V527.3H2059.34V773H2019.68L1973.35 593.639H1972.65V773H1938.25V527.3Z" fill="#1787E8" fill-opacity="0.6"/>
<path d="M2118.23 562.4H2077.86V527.3H2197.2V562.4H2156.84V773H2118.23V562.4Z" fill="#1787E8" fill-opacity="0.6"/>
<path d="M2215.89 527.3H2254.5V773H2215.89V527.3Z" fill="#1787E8" fill-opacity="0.6"/>
<path d="M2337.83 776.51C2319.34 776.51 2305.18 771.245 2295.35 760.715C2285.76 750.185 2280.96 735.326 2280.96 716.138V584.162C2280.96 564.974 2285.76 550.115 2295.35 539.585C2305.18 529.055 2319.34 523.79 2337.83 523.79C2356.31 523.79 2370.35 529.055 2379.95 539.585C2389.77 550.115 2394.69 564.974 2394.69 584.162V610.136H2358.18V581.705C2358.18 566.495 2351.75 558.89 2338.88 558.89C2326.01 558.89 2319.57 566.495 2319.57 581.705V718.946C2319.57 733.922 2326.01 741.41 2338.88 741.41C2351.75 741.41 2358.18 733.922 2358.18 718.946V681.389H2394.69V716.138C2394.69 735.326 2389.77 750.185 2379.95 760.715C2370.35 771.245 2356.31 776.51 2337.83 776.51Z" fill="#1787E8" fill-opacity="0.6"/>
<path d="M304.855 223.83C298.336 223.83 293.622 228.544 293.622 235.005C293.622 241.524 298.336 246.239 304.797 246.239C311.316 246.239 315.973 241.524 316.031 235.064C316.031 228.544 311.375 223.83 304.855 223.83Z" fill="#1787E8" fill-opacity="0.1"/>
<path d="M416.961 223.83C410.442 223.713 405.552 228.312 405.436 234.772C405.32 241.292 409.976 246.181 416.379 246.297C422.898 246.414 427.729 241.816 427.846 235.355C428.02 228.777 423.422 223.946 416.961 223.83Z" fill="#1787E8" fill-opacity="0.1"/>
<path d="M528.661 223.83C522.142 223.771 517.369 228.486 517.311 234.947C517.252 241.466 521.967 246.239 528.428 246.297C534.947 246.356 539.662 241.699 539.72 235.18C539.778 228.603 535.18 223.888 528.661 223.83Z" fill="#1787E8" fill-opacity="0.1"/>
<path d="M25.1136 302.234C31.6328 302.234 36.3475 297.578 36.3475 291.059C36.3475 284.539 31.691 279.825 25.1718 279.825C18.6527 279.825 13.9379 284.539 13.9379 291C13.8797 297.461 18.6527 302.176 25.1136 302.234Z" fill="#1787E8" fill-opacity="0.1"/>
<path d="M136.813 302.234C143.332 302.292 148.105 297.694 148.221 291.175C148.279 284.598 143.681 279.825 137.22 279.766C130.701 279.708 125.87 284.307 125.811 290.767C125.695 297.287 130.41 302.118 136.813 302.234Z" fill="#1787E8" fill-opacity="0.1"/>
<path d="M248.744 279.766C242.283 279.825 237.568 284.598 237.626 291.117C237.685 297.578 242.516 302.292 248.977 302.234C255.496 302.176 260.094 297.403 260.036 290.884C260.036 284.365 255.263 279.708 248.744 279.766Z" fill="#1787E8" fill-opacity="0.1"/>
<path d="M361.199 279.766C354.68 279.592 349.733 284.132 349.5 290.535C349.325 297.054 353.865 302.001 360.268 302.234C366.787 302.409 371.735 297.869 371.909 291.466C372.142 284.83 367.66 279.941 361.199 279.766Z" fill="#1787E8" fill-opacity="0.1"/>
<path d="M472.84 279.766C466.321 279.708 461.49 284.365 461.431 290.767C461.373 297.287 466.03 302.118 472.491 302.176C479.01 302.234 483.783 297.578 483.841 291.117C483.899 284.598 479.301 279.825 472.84 279.766Z" fill="#1787E8" fill-opacity="0.1"/>
<path d="M81.1086 358.171C87.6278 358.113 92.2844 353.398 92.2262 346.879C92.2262 340.36 87.5114 335.703 80.9922 335.703C74.4731 335.703 69.8165 340.476 69.8165 346.995C69.8747 353.456 74.6477 358.171 81.1086 358.171Z" fill="#1787E8" fill-opacity="0.1"/>
<path d="M181.748 346.122C181.398 352.7 185.822 357.764 192.167 358.171C198.686 358.52 203.808 354.097 204.157 347.752C204.506 341.175 200.141 336.111 193.796 335.761C187.161 335.354 182.097 339.778 181.748 346.122Z" fill="#1787E8" fill-opacity="0.1"/>
<path d="M305.262 335.703C298.743 335.529 293.795 340.01 293.621 346.471C293.446 352.991 297.986 357.938 304.389 358.171C310.908 358.346 315.856 353.805 316.03 347.403C316.205 340.767 311.723 335.878 305.262 335.703Z" fill="#1787E8" fill-opacity="0.1"/>
<path d="M416.495 335.703C410.034 335.761 405.378 340.593 405.494 347.112C405.552 353.573 410.384 358.229 416.903 358.171C423.364 358.055 427.962 353.282 427.904 346.762C427.787 340.243 423.014 335.645 416.495 335.703Z" fill="#1787E8" fill-opacity="0.1"/>
<path d="M136.986 414.108C143.506 414.108 148.162 409.451 148.22 402.932C148.22 396.413 143.564 391.698 137.045 391.698C130.526 391.698 125.811 396.413 125.811 402.874C125.811 409.335 130.526 414.108 136.986 414.108Z" fill="#1787E8" fill-opacity="0.1"/>
<path d="M248.628 391.64C242.167 391.756 237.51 396.588 237.627 403.107C237.743 409.568 242.574 414.224 249.093 414.108C255.554 413.991 260.153 409.218 260.036 402.641C259.978 396.122 255.205 391.524 248.628 391.64Z" fill="#1787E8" fill-opacity="0.1"/>
<path d="M360.967 391.64C354.447 391.582 349.616 396.238 349.558 402.641C349.5 409.16 354.156 413.991 360.617 414.05C367.136 414.108 371.909 409.509 371.968 402.99C372.026 396.471 367.428 391.698 360.967 391.64Z" fill="#1787E8" fill-opacity="0.1"/>
<path d="M192.516 470.045C199.036 470.219 203.983 465.679 204.158 459.276C204.332 452.699 199.85 447.81 193.448 447.635C186.928 447.46 181.981 452 181.748 458.403C181.515 464.864 186.114 469.812 192.516 470.045Z" fill="#1787E8" fill-opacity="0.1"/>
<path d="M305.088 447.577C298.568 447.46 293.679 452.059 293.563 458.52C293.446 465.039 298.103 469.928 304.505 470.045C311.025 470.161 315.856 465.563 315.972 459.102C316.147 452.524 311.548 447.693 305.088 447.577Z" fill="#1787E8" fill-opacity="0.1"/>
<path d="M248.686 503.513C242.225 503.63 237.568 508.403 237.685 514.922C237.801 521.383 242.632 526.04 249.093 525.923C255.554 525.807 260.153 521.034 260.094 514.515C259.978 508.054 255.205 503.397 248.686 503.513Z" fill="#1787E8" fill-opacity="0.1"/>
<path d="M137.045 78.4871C143.564 78.4871 148.221 73.7724 148.221 67.195C148.221 60.6758 143.506 56.0193 136.987 56.0193C130.468 56.0193 125.753 60.7922 125.811 67.2532C125.811 73.7724 130.584 78.4871 137.045 78.4871Z" fill="#1787E8" fill-opacity="0.1"/>
<path d="M260.036 68.0099C260.386 61.4326 256.02 56.3685 249.676 56.0193C243.098 55.6701 238.034 60.0938 237.685 66.4383C237.336 72.9575 241.759 78.0797 248.104 78.4289C254.623 78.8364 259.745 74.3545 260.036 68.0099Z" fill="#1787E8" fill-opacity="0.1"/>
<path d="M360.967 56.0193C354.447 55.9611 349.616 60.6176 349.558 67.0204C349.5 73.5395 354.156 78.3707 360.617 78.4289C367.136 78.4871 371.909 73.8888 371.968 67.3696C372.026 60.8504 367.428 56.1357 360.967 56.0193Z" fill="#1787E8" fill-opacity="0.1"/>
<path d="M81.2826 134.424C87.7436 134.308 92.3419 129.535 92.2837 123.015C92.2255 116.554 87.4525 111.898 80.8752 112.014C74.4142 112.131 69.7577 116.904 69.8741 123.423C69.9323 129.826 74.7635 134.482 81.2826 134.424Z" fill="#1787E8" fill-opacity="0.1"/>
<path d="M193.156 111.956C186.637 111.898 181.864 116.496 181.747 122.957C181.689 129.476 186.287 134.307 192.748 134.366C199.268 134.424 204.041 129.826 204.157 123.306C204.215 116.845 199.617 112.072 193.156 111.956Z" fill="#1787E8" fill-opacity="0.1"/>
<path d="M304.913 111.956C298.394 111.898 293.621 116.554 293.621 123.074C293.562 129.593 298.277 134.366 304.738 134.424C311.257 134.482 315.972 129.767 316.03 123.306C316.03 116.729 311.432 112.014 304.913 111.956Z" fill="#1787E8" fill-opacity="0.1"/>
<path d="M416.671 111.956C410.151 111.956 405.495 116.671 405.495 123.19C405.495 129.709 410.268 134.424 416.729 134.366C423.248 134.366 427.904 129.651 427.904 123.074C427.846 116.613 423.19 111.956 416.671 111.956Z" fill="#1787E8" fill-opacity="0.1"/>
<path d="M24.9967 190.361C31.5158 190.419 36.2306 185.762 36.2888 179.243C36.347 172.724 31.6905 167.951 25.2295 167.893C18.7103 167.835 13.9374 172.549 13.8792 179.01C13.8792 185.471 18.5939 190.302 24.9967 190.361Z" fill="#1787E8" fill-opacity="0.1"/>
<path d="M136.87 190.361C143.389 190.419 148.104 185.762 148.162 179.243C148.22 172.724 143.564 167.951 137.103 167.893C130.584 167.835 125.811 172.549 125.753 179.01C125.753 185.471 130.467 190.302 136.87 190.361Z" fill="#1787E8" fill-opacity="0.1"/>
<path d="M249.326 167.893C242.807 167.718 237.859 172.258 237.626 178.661C237.452 185.18 241.992 190.128 248.395 190.361C254.914 190.594 259.861 185.995 260.036 179.592C260.269 172.957 255.787 168.126 249.326 167.893Z" fill="#1787E8" fill-opacity="0.1"/>
<path d="M360.791 167.893C354.272 167.893 349.557 172.608 349.557 179.069C349.557 185.588 354.272 190.302 360.733 190.361C367.252 190.361 371.967 185.704 371.967 179.185C371.967 172.608 367.311 167.893 360.791 167.893Z" fill="#1787E8" fill-opacity="0.1"/>
<path d="M472.723 167.893C466.204 167.835 461.431 172.549 461.373 179.01C461.315 185.529 466.03 190.302 472.491 190.361C479.01 190.419 483.725 185.704 483.783 179.243C483.841 172.666 479.243 167.951 472.723 167.893Z" fill="#1787E8" fill-opacity="0.1"/>
<path d="M80.643 246.297C87.1622 246.53 92.1097 241.932 92.2844 235.529C92.459 228.952 87.977 224.062 81.5743 223.83C75.0551 223.655 70.1076 228.195 69.8747 234.598C69.6419 241.117 74.2402 246.065 80.643 246.297Z" fill="#1787E8" fill-opacity="0.1"/>
<path d="M193.098 223.83C186.578 223.771 181.747 228.428 181.689 234.889C181.631 241.408 186.287 246.239 192.748 246.297C199.267 246.356 204.04 241.699 204.099 235.238C204.215 228.661 199.617 223.888 193.098 223.83Z" fill="#1787E8" fill-opacity="0.1"/>
<path d="M3080.22 1347.22V1129H3298.44V1347.22V1565.44H3080.22H2862V1347.22H3080.22Z" fill="#1787E8" fill-opacity="0.2"/>
<path d="M2946.71 1659.07H3392.07V1213.71H3164.94V1431.94H2946.71V1659.07ZM3383.16 1650.16H2955.63V1440.85H3173.85V1222.63H3383.16V1650.16Z" fill="#1787E8"/>
<path d="M3034.55 1131.36H3047.83V1320.75H3034.55V1131.36Z" fill="#1787E8" fill-opacity="0.1"/>
<path d="M3000.72 1131.32H3014V1320.71H3000.72V1131.32Z" fill="#1787E8" fill-opacity="0.1"/>
<path d="M2966.95 1131.36H2980.22V1320.75H2966.95V1131.36Z" fill="#1787E8" fill-opacity="0.1"/>
<path d="M2933.17 1131.36H2946.45V1320.75H2933.17V1131.36Z" fill="#1787E8" fill-opacity="0.1"/>
<path d="M2899.39 1131.32H2912.67V1320.71H2899.39V1131.32Z" fill="#1787E8" fill-opacity="0.1"/>
<path d="M2866.01 1131.36H2878.89V1320.75H2866.01V1131.36Z" fill="#1787E8" fill-opacity="0.1"/>
<path d="M3273.57 130L3210.68 192.199L3147.76 130L3084.87 192.199L3021.99 130L2966.52 184.861L2911.01 130L2848.13 192.199L2785.2 130L2722.32 192.199L2659.43 130L2597 191.743L2603.96 198.662L2659.43 143.801L2722.32 206L2785.2 143.801L2848.13 206L2911.01 143.801L2966.52 198.7L3021.99 143.801L3084.87 206L3147.76 143.801L3210.68 206L3273.57 143.801L3329.08 198.662L3336 191.743L3273.57 130Z" fill="#1787E8"/>
<path d="M3273.56 18L3210.66 80.1991L3147.73 18L3084.83 80.1991L3021.93 18L2972.04 67.3487L2972 81.1876L3021.93 31.8009L3084.83 94L3147.73 31.8009L3210.66 94L3273.56 31.8009L3329.08 86.6623L3336 79.7049L3273.56 18Z" fill="#1787E8" fill-opacity="0.2"/>
<path d="M35.4881 1683C-100.975 1683 -212 1571.97 -212 1435.49C-212 1299 -100.975 1188 35.4881 1188C171.951 1188 283 1299.03 283 1435.49C283 1571.95 171.975 1683 35.4881 1683ZM35.4881 1192.78C-98.3448 1192.78 -207.219 1301.66 -207.219 1435.49C-207.219 1569.32 -98.3448 1678.22 35.4881 1678.22C169.321 1678.22 278.219 1569.34 278.219 1435.49C278.219 1301.66 169.321 1192.78 35.4881 1192.78Z" fill="#1787E8"/>
<path d="M35.488 1642.52C-78.6692 1642.52 -171.525 1549.65 -171.525 1435.51C-171.525 1321.35 -78.6453 1228.5 35.488 1228.5C149.645 1228.5 242.501 1321.38 242.501 1435.51C242.525 1549.65 149.645 1642.52 35.488 1642.52ZM35.488 1244.85C-69.6322 1244.85 -155.149 1330.37 -155.149 1435.49C-155.149 1540.61 -69.6322 1626.12 35.488 1626.12C140.608 1626.12 226.125 1540.61 226.125 1435.49C226.125 1330.37 140.608 1244.85 35.488 1244.85Z" fill="#1787E8" fill-opacity="0.2"/>
<path d="M35.488 1602.03C-56.3398 1602.03 -131.05 1527.32 -131.05 1435.49C-131.05 1343.66 -56.3398 1268.95 35.488 1268.95C127.316 1268.95 202.026 1343.66 202.026 1435.49C202.026 1527.32 127.316 1602.03 35.488 1602.03ZM35.488 1273.73C-53.71 1273.73 -126.269 1346.29 -126.269 1435.49C-126.269 1524.69 -53.71 1597.24 35.488 1597.24C124.686 1597.24 197.245 1524.69 197.245 1435.49C197.245 1346.29 124.686 1273.73 35.488 1273.73Z" fill="#1787E8"/>
<path d="M35.4881 1561.55C-34.0103 1561.55 -90.5749 1505.01 -90.5749 1435.49C-90.5749 1365.97 -34.0342 1309.43 35.4881 1309.43C105.01 1309.43 161.551 1365.97 161.551 1435.49C161.551 1505.01 105.01 1561.55 35.4881 1561.55ZM35.4881 1314.23C-31.3805 1314.23 -85.7934 1368.64 -85.7934 1435.51C-85.7934 1502.38 -31.3805 1556.79 35.4881 1556.79C102.357 1556.79 156.77 1502.38 156.77 1435.51C156.77 1368.64 102.381 1314.23 35.4881 1314.23Z" fill="#1787E8"/>
<path d="M35.488 1521.08C-11.7049 1521.08 -50.0761 1482.68 -50.0761 1435.49C-50.0761 1388.3 -11.681 1349.92 35.488 1349.92C82.681 1349.92 121.076 1388.32 121.076 1435.49C121.076 1482.68 82.681 1521.08 35.488 1521.08ZM35.488 1354.71C-9.05122 1354.71 -45.2947 1390.95 -45.2947 1435.49C-45.2947 1480.03 -9.05122 1516.29 35.488 1516.29C80.0273 1516.29 116.295 1480.05 116.295 1435.49C116.295 1390.92 80.0512 1354.71 35.488 1354.71Z" fill="#1787E8"/>
<path d="M35.4881 1480.6C10.6246 1480.6 -9.60101 1460.38 -9.60101 1435.51C-9.60101 1410.65 10.6246 1390.42 35.4881 1390.42C60.3517 1390.42 80.5772 1410.65 80.5772 1435.51C80.6011 1460.35 60.3517 1480.6 35.4881 1480.6ZM35.4881 1395.18C13.2544 1395.18 -4.81956 1413.25 -4.81956 1435.49C-4.81956 1457.72 13.2544 1475.8 35.4881 1475.8C57.7219 1475.8 75.7957 1457.72 75.7957 1435.49C75.8196 1413.28 57.7219 1395.18 35.4881 1395.18Z" fill="#1787E8"/>
</g>
<defs>
<clipPath id="clip0">
<rect width="3264" height="1528" fill="white"/>
</clipPath>
</defs>
</svg>
